<?xml version="1.0" encoding="UTF-8" standalone="no"?>
<svg class="gaugeSVG"
   width="100%"
   height="100%"
   viewBox="0 0 100 100"
   version="1.1"
   xmlns="http://www.w3.org/2000/svg"
   xmlns:svg="http://www.w3.org/2000/svg">
  <defs>
    <polygon id="polyHollow" points="1,5 4,1 46,1 49,5 46,9 4,9 1,5 0,5 0,10.2 50.2,10.2 50.2,0 0,0 0,5" />
	<linearGradient id="gradientColor" x1="0" x2="0" y1="1" y2="0">
        <stop class="fillColor0" offset="0%" stop-color="blue"/>
        <stop class="fillColor50" offset="50%" stop-color="orange"/>
        <stop class="fillColor100" offset="100%" stop-color="red"/>
    </linearGradient>
	
	<g id="guageVert">
		<use href="#polyHollow" x="0" y="0"/>
		<use href="#polyHollow" x="0" y="10"/>
		<use href="#polyHollow" x="0" y="20"/>
		<use href="#polyHollow" x="0" y="30"/>
		<use href="#polyHollow" x="0" y="40"/>
		<use href="#polyHollow" x="0" y="50"/>
		<use href="#polyHollow" x="0" y="60"/>
		<use href="#polyHollow" x="0" y="70"/>
		<use href="#polyHollow" x="0" y="80"/>
		<use href="#polyHollow" x="0" y="90"/>
	</g>
</defs>
<g class="gBkg" fill="darkgreen">
	<rect x="0" y="0" width="100" height="100" fill="url(#gradientColor)" stroke="none"/>
	<rect class="gaugeValue" x="0" y="0" width="100" height="100" fill="silver" stroke="none"/>
	<use href="#guageVert" x="0" y="0"/>
	<use href="#guageVert" x="50" y="0"/>
</g>
</svg>
